<svg viewBox="0 0 12 12" fill="none" xmlns="http://www.w3.org/2000/svg">
  <path fill-rule="evenodd" clip-rule="evenodd"
    d="M0 1.91489C0 0.857326 0.857328 0 1.91489 0H6.10802V1.78723H1.91489C1.84439 1.78723 1.78723 1.84439 1.78723 1.91489V10.0851C1.78723 10.1556 1.84439 10.2128 1.91489 10.2128H6.36257C6.39643 10.2128 6.4289 10.1993 6.45284 10.1754L8.949 7.67921H5.89198V5.89198H11.1064C11.5999 5.89198 12 6.29207 12 6.7856V12H10.2128V8.94298L7.71661 11.4391C7.35749 11.7983 6.87043 12 6.36257 12H1.91489C0.857327 12 0 11.1427 0 10.0851V1.91489Z"
    fill="currentcolor" />
</svg>
